<?xml version="1.0" encoding="UTF-8" standalone="no"?>
<!-- Created with Inkscape (http://www.inkscape.org/) -->

<svg
   xmlns:dc="http://purl.org/dc/elements/1.1/"
   xmlns:cc="http://creativecommons.org/ns#"
   xmlns:rdf="http://www.w3.org/1999/02/22-rdf-syntax-ns#"
   xmlns:svg="http://www.w3.org/2000/svg"
   xmlns="http://www.w3.org/2000/svg"
   xmlns:sodipodi="http://sodipodi.sourceforge.net/DTD/sodipodi-0.dtd"
   xmlns:inkscape="http://www.inkscape.org/namespaces/inkscape"
   width="210mm"
   height="297mm"
   viewBox="0 0 744.09448819 1052.3622047"
   id="svg2"
   version="1.1"
   inkscape:version="0.91 r13725"
   sodipodi:docname="USED-OIL-ONLY.svg">
  <defs
     id="defs4" />
  <sodipodi:namedview
     id="base"
     pagecolor="#ffffff"
     bordercolor="#666666"
     borderopacity="1.0"
     inkscape:pageopacity="0.0"
     inkscape:pageshadow="2"
     inkscape:zoom="0.12374369"
     inkscape:cx="511.04612"
     inkscape:cy="-987.67264"
     inkscape:document-units="px"
     inkscape:current-layer="layer1"
     showgrid="false"
     inkscape:window-width="1440"
     inkscape:window-height="810"
     inkscape:window-x="0"
     inkscape:window-y="27"
     inkscape:window-maximized="1" />
  <metadata
     id="metadata7">
    <rdf:RDF>
      <cc:Work
         rdf:about="">
        <dc:format>image/svg+xml</dc:format>
        <dc:type
           rdf:resource="http://purl.org/dc/dcmitype/StillImage" />
        <dc:title></dc:title>
      </cc:Work>
    </rdf:RDF>
  </metadata>
  <g
     inkscape:label="Layer 1"
     inkscape:groupmode="layer"
     id="layer1">
    <g
       transform="matrix(9.0579191,0,0,9.0579191,7062.9923,-3002.4852)"
       style="font-style:normal;font-weight:normal;font-size:40px;line-height:125%;font-family:sans-serif;letter-spacing:0px;word-spacing:0px;fill:#000000;fill-opacity:1;stroke:none;stroke-width:1px;stroke-linecap:butt;stroke-linejoin:miter;stroke-opacity:1"
       id="flowRoot3336">
      <path
         d="m -985.46441,44.243594 49.32,0 0,77.219996 q 0,21.78 -5.04,36.9 -4.86,15.12 -13.5,24.66 -8.64,9.54 -20.34,14.04 -11.7,4.68 -25.19999,5.22 l 0,-36.9 q 7.01999,-3.06 10.79999,-14.22 3.96,-11.16 3.96,-29.7 l 0,-77.219996 z m -38.69999,0 0,77.219996 q 0,17.82 3.24,28.98 3.42,11.16 9.9,14.58 l 0,37.26 q -13.32,-0.72 -24.84,-5.4 -11.34,-4.68 -19.8,-14.22 -8.28,-9.72 -12.96,-24.66 -4.68,-14.94 -4.68,-36.54 l 0,-77.219996 49.14,0 z"
         style="font-style:normal;font-variant:normal;font-weight:900;font-stretch:normal;font-size:180px;font-family:stencilla;-inkscape-font-specification:'stencilla Heavy';text-align:center;text-anchor:middle"
         id="path3379"
         inkscape:connector-curvature="0" />
      <path
         d="m -852.32629,103.46359 q -0.36,-0.18 -0.54,-0.18 -0.18,0 -0.36,-0.18 l 0,-0.18 5.04,1.44 2.7,0.72 q 3.6,1.08 5.58,1.26 l 3.24,0.54 2.52,0.54 q 6.3,1.62 12.24,3.42 6.12,1.62 12.78,4.86 5.58,2.88 9.18,7.02 3.78,4.14 5.94,9.18 2.34,5.04 3.24,10.62 1.08,5.58 1.08,11.34 0,13.5 -5.76,22.5 -5.76,9 -14.94,14.58 -9.18,5.58 -20.52,8.1 -11.34,2.52 -22.32,3.06 l 0,-35.64 q 2.88,-0.36 5.76,-1.44 3.06,-1.08 5.22,-2.7 2.34,-1.8 3.78,-4.14 1.44,-2.34 1.44,-5.4 0,-2.52 -1.44,-4.14 -1.44,-1.8 -3.78,-3.06 -2.34,-1.26 -5.22,-1.98 -2.88,-0.9 -5.76,-1.62 l 0,-38.7 0.9,0.18 z m -24.48,-15.479996 q 0,6.12 3.78,8.82 3.78,2.52 9,3.959996 l 0,38.88 -1.08,-0.18 0.54,0 -4.5,-0.9 q -4.14,-0.9 -8.1,-1.62 -3.96,-0.9 -7.38,-1.8 -4.68,-1.08 -9.72,-2.88 -5.04,-1.98 -9.72,-4.68 -4.5,-2.7 -8.46,-5.94 -3.78,-3.42 -6.48,-7.38 -2.88,-4.32 -4.32,-10.26 -1.44,-5.939996 -1.44,-12.779996 0,-12.78 5.4,-21.96 5.4,-9.18 14.04,-15.3 8.64,-6.12 19.44,-9.18 10.98,-3.24 21.78,-3.96 l 0,35.82 q -4.86,0.72 -8.82,3.42 -3.96,2.7 -3.96,7.92 z m -9.18,61.559996 3.24,-0.18 q 0.72,0 1.26,0 0.72,-0.18 1.44,-0.18 l 0.36,0 q 0.36,0.9 0.54,1.98 0.36,0.9 0.72,1.8 1.44,3.96 3.6,6.66 2.16,2.52 3.24,2.88 1.44,0.9 3.42,1.62 1.98,0.72 4.14,1.26 l 0,36.72 q -10.26,-0.36 -20.34,-3.24 -9.9,-2.7 -18.54,-8.64 -8.64,-5.76 -15.48,-15.12 -6.66,-9.54 -10.08,-23.22 l 42.48,-2.34 z m 43.2,-53.819996 q -1.44,-6.3 -4.14,-10.8 -2.7,-4.5 -6.3,-6.66 l 0,-37.62 q 20.34,0.9 35.82,13.5 15.66,12.42 24.3,36.9 l -49.68,4.68 z"
         style="font-style:normal;font-variant:normal;font-weight:900;font-stretch:normal;font-size:180px;font-family:stencilla;-inkscape-font-specification:'stencilla Heavy';text-align:center;text-anchor:middle"
         id="path3381"
         inkscape:connector-curvature="0" />
      <path
         d="m -729.55504,198.68359 -49.5,0 0,-154.259996 49.5,0 0,154.259996 z m 84.24,-154.259996 0,36.18 -73.44,0 0,-36.18 73.44,0 z m 0,118.079996 0,36.18 -73.44,0 0,-36.18 73.44,0 z m -11.52,-58.68 0,36.18 -61.92,0 0,-36.18 61.92,0 z"
         style="font-style:normal;font-variant:normal;font-weight:900;font-stretch:normal;font-size:180px;font-family:stencilla;-inkscape-font-specification:'stencilla Heavy';text-align:center;text-anchor:middle"
         id="path3383"
         inkscape:connector-curvature="0" />
      <path
         d="m -622.0866,44.423594 57.96,0 0,36.18 -8.64,0 0,81.899996 8.64,0 0,36.18 -57.96,0 0,-154.259996 z m 70.02,0 q 14.4,0 27.18,4.14 12.96,3.96 22.68,13.14 9.72,9.18 15.48,23.94 5.76,14.759996 5.76,35.999996 0,21.42 -5.76,36.18 -5.76,14.76 -15.48,23.94 -9.72,9 -22.68,12.96 -12.78,3.96 -27.18,3.96 l -1.26,0 0,-36.18 1.26,0 q 9.54,0 15.66,-10.26 6.3,-10.44 6.3,-30.6 0,-20.16 -6.3,-30.599996 -6.12,-10.44 -15.66,-10.44 l -1.26,0 0,-36.18 1.26,0 z"
         style="font-style:normal;font-variant:normal;font-weight:900;font-stretch:normal;font-size:180px;font-family:stencilla;-inkscape-font-specification:'stencilla Heavy';text-align:center;text-anchor:middle"
         id="path3385"
         inkscape:connector-curvature="0" />
      <path
         d="m -863.32035,346.46359 q 0,-18.54 -5.76,-29.7 -5.76,-11.34 -13.86,-14.22 l 0,-36.9 q 13.68,0.72 26.1,5.4 12.42,4.68 21.96,14.4 9.54,9.54 15.12,24.66 5.76,14.94 5.76,36.36 0,21.6 -5.76,36.72 -5.58,15.12 -15.12,24.66 -9.54,9.54 -21.96,14.04 -12.42,4.68 -26.1,5.4 l 0,-36.9 q 8.1,-2.88 13.86,-14.04 5.76,-11.34 5.76,-29.88 z m -98.46,0 q 0,-21.24 5.58,-36.18 5.58,-15.12 14.94,-24.66 9.36,-9.72 21.6,-14.4 12.42,-4.86 25.92,-5.58 l 0,37.08 q -7.92,3.06 -13.5,14.4 -5.4,11.16 -5.4,29.34 0,18.36 5.4,29.52 5.58,11.16 13.5,14.22 l 0,37.08 q -13.5,-0.72 -25.92,-5.4 -12.24,-4.5 -21.6,-14.04 -9.36,-9.72 -14.94,-24.66 -5.58,-15.12 -5.58,-36.72 z"
         style="font-style:normal;font-variant:normal;font-weight:900;font-stretch:normal;font-size:180px;font-family:stencilla;-inkscape-font-specification:'stencilla Heavy';text-align:center;text-anchor:middle"
         id="path3387"
         inkscape:connector-curvature="0" />
      <path
         d="m -749.91191,269.42359 0,154.26 -49.32,0 0,-154.26 49.32,0 z"
         style="font-style:normal;font-variant:normal;font-weight:900;font-stretch:normal;font-size:180px;font-family:stencilla;-inkscape-font-specification:'stencilla Heavy';text-align:center;text-anchor:middle"
         id="path3389"
         inkscape:connector-curvature="0" />
      <path
         d="m -726.84379,269.42359 49.14,0 0,154.26 -49.14,0 0,-154.26 z m 124.74,118.08 0,36.18 -64.8,0 0,-36.18 64.8,0 z"
         style="font-style:normal;font-variant:normal;font-weight:900;font-stretch:normal;font-size:180px;font-family:stencilla;-inkscape-font-specification:'stencilla Heavy';text-align:center;text-anchor:middle"
         id="path3391"
         inkscape:connector-curvature="0" />
      <path
         d="m -983.55473,571.46359 q 0,-18.54 -5.76,-29.7 -5.76,-11.34 -13.85997,-14.22 l 0,-36.9 q 13.67997,0.72 26.09997,5.4 12.42,4.68 21.96,14.4 9.54,9.54 15.12,24.66 5.76,14.94 5.76,36.36 0,21.6 -5.76,36.72 -5.58,15.12 -15.12,24.66 -9.54,9.54 -21.96,14.04 -12.42,4.68 -26.09997,5.4 l 0,-36.9 q 8.09997,-2.88 13.85997,-14.04 5.76,-11.34 5.76,-29.88 z m -98.45997,0 q 0,-21.24 5.58,-36.18 5.58,-15.12 14.94,-24.66 9.36,-9.72 21.6,-14.4 12.42,-4.86 25.92,-5.58 l 0,37.08 q -7.92,3.06 -13.5,14.4 -5.4,11.16 -5.4,29.34 0,18.36 5.4,29.52 5.58,11.16 13.5,14.22 l 0,37.08 q -13.5,-0.72 -25.92,-5.4 -12.24,-4.5 -21.6,-14.04 -9.36,-9.72 -14.94,-24.66 -5.58,-15.12 -5.58,-36.72 z"
         style="font-style:normal;font-variant:normal;font-weight:900;font-stretch:normal;font-size:180px;font-family:stencilla;-inkscape-font-specification:'stencilla Heavy';text-align:center;text-anchor:middle"
         id="path3393"
         inkscape:connector-curvature="0" />
      <path
         d="m -780.14629,494.42359 0,154.26 -46.98,0 -10.44,-19.44 0.18,0 -71.64,-134.82 36.72,0 43.38,83.34 0,-7.2 q 0,-9.36 -0.18,-19.98 0,-10.62 -0.18,-20.88 0,-10.26 0,-19.44 0,-9.18 0,-15.84 l 49.14,0 z m -139.86,154.26 0,-152.64 49.14,92.7 0,59.94 -49.14,0 z"
         style="font-style:normal;font-variant:normal;font-weight:900;font-stretch:normal;font-size:180px;font-family:stencilla;-inkscape-font-specification:'stencilla Heavy';text-align:center;text-anchor:middle"
         id="path3395"
         inkscape:connector-curvature="0" />
      <path
         d="m -763.75785,494.42359 49.14,0 0,154.26 -49.14,0 0,-154.26 z m 124.74,118.08 0,36.18 -64.8,0 0,-36.18 64.8,0 z"
         style="font-style:normal;font-variant:normal;font-weight:900;font-stretch:normal;font-size:180px;font-family:stencilla;-inkscape-font-specification:'stencilla Heavy';text-align:center;text-anchor:middle"
         id="path3397"
         inkscape:connector-curvature="0" />
      <path
         d="m -533.09629,518.90359 -0.18,0 14.94,-24.48 53.1,0 -60.12,83.7 0,70.56 -49.14,0 0,-61.02 41.4,-68.76 z m -71.82,16.74 -29.7,-41.22 52.92,0 25.38,41.58 -22.14,36.72 -26.46,-37.08 z"
         style="font-style:normal;font-variant:normal;font-weight:900;font-stretch:normal;font-size:180px;font-family:stencilla;-inkscape-font-specification:'stencilla Heavy';text-align:center;text-anchor:middle"
         id="path3399"
         inkscape:connector-curvature="0" />
    </g>
  </g>
</svg>
