<?xml version="1.0" encoding="UTF-8" standalone="no"?>
<!-- Created with Inkscape (http://www.inkscape.org/) -->

<svg
   xmlns:dc="http://purl.org/dc/elements/1.1/"
   xmlns:cc="http://creativecommons.org/ns#"
   xmlns:rdf="http://www.w3.org/1999/02/22-rdf-syntax-ns#"
   xmlns:svg="http://www.w3.org/2000/svg"
   xmlns="http://www.w3.org/2000/svg"
   xmlns:sodipodi="http://sodipodi.sourceforge.net/DTD/sodipodi-0.dtd"
   xmlns:inkscape="http://www.inkscape.org/namespaces/inkscape"
   width="210mm"
   height="297mm"
   viewBox="0 0 744.09448819 1052.3622047"
   id="svg3428"
   version="1.1"
   inkscape:version="0.91 r13725"
   sodipodi:docname="SPENT-ANTI-FREEZE-ONLY.svg">
  <defs
     id="defs3430" />
  <sodipodi:namedview
     id="base"
     pagecolor="#ffffff"
     bordercolor="#666666"
     borderopacity="1.0"
     inkscape:pageopacity="0.0"
     inkscape:pageshadow="2"
     inkscape:zoom="0.35"
     inkscape:cx="496.10161"
     inkscape:cy="977.14286"
     inkscape:document-units="px"
     inkscape:current-layer="layer1"
     showgrid="false"
     inkscape:window-width="1440"
     inkscape:window-height="810"
     inkscape:window-x="0"
     inkscape:window-y="27"
     inkscape:window-maximized="1" />
  <metadata
     id="metadata3433">
    <rdf:RDF>
      <cc:Work
         rdf:about="">
        <dc:format>image/svg+xml</dc:format>
        <dc:type
           rdf:resource="http://purl.org/dc/dcmitype/StillImage" />
        <dc:title></dc:title>
      </cc:Work>
    </rdf:RDF>
  </metadata>
  <g
     inkscape:label="Layer 1"
     inkscape:groupmode="layer"
     id="layer1">
    <g
       transform="matrix(2.2198038,0,0,2.2198038,1344.8696,-758.14864)"
       style="font-style:normal;font-weight:normal;font-size:40px;line-height:125%;font-family:sans-serif;letter-spacing:0px;word-spacing:0px;fill:#000000;fill-opacity:1;stroke:none;stroke-width:1px;stroke-linecap:butt;stroke-linejoin:miter;stroke-opacity:1"
       id="flowRoot3436">
      <path
         d="m -868.71301,103.46359 q -0.36,-0.18 -0.54,-0.18 -0.18,0 -0.36,-0.18 l 0,-0.18 5.04,1.44 2.7,0.72 q 3.6,1.08 5.58,1.26 l 3.24,0.54 2.52,0.54 q 6.3,1.62 12.24,3.42 6.12,1.62 12.78,4.86 5.58,2.88 9.18,7.02 3.78,4.14 5.94,9.18 2.34,5.04 3.24,10.62 1.08,5.58 1.08,11.34 0,13.5 -5.76,22.5 -5.76,9 -14.94,14.58 -9.18,5.58 -20.52,8.1 -11.34,2.52 -22.32,3.06 l 0,-35.64 q 2.88,-0.36 5.76,-1.44 3.06,-1.08 5.22,-2.7 2.34,-1.8 3.78,-4.14 1.44,-2.34 1.44,-5.4 0,-2.52 -1.44,-4.14 -1.44,-1.8 -3.78,-3.06 -2.34,-1.26 -5.22,-1.98 -2.88,-0.9 -5.76,-1.62 l 0,-38.7 0.9,0.18 z m -24.48,-15.479996 q 0,6.12 3.78,8.82 3.78,2.52 9,3.959996 l 0,38.88 -1.08,-0.18 0.54,0 -4.5,-0.9 q -4.14,-0.9 -8.1,-1.62 -3.96,-0.9 -7.38,-1.8 -4.68,-1.08 -9.72,-2.88 -5.04,-1.98 -9.72,-4.68 -4.5,-2.7 -8.46,-5.94 -3.78,-3.42 -6.48,-7.38 -2.88,-4.32 -4.32,-10.26 -1.44,-5.939996 -1.44,-12.779996 0,-12.78 5.4,-21.96 5.4,-9.18 14.04,-15.3 8.64,-6.12 19.44,-9.18 10.98,-3.24 21.78,-3.96 l 0,35.82 q -4.86,0.72 -8.82,3.42 -3.96,2.7 -3.96,7.92 z m -9.18,61.559996 3.24,-0.18 q 0.72,0 1.26,0 0.72,-0.18 1.44,-0.18 l 0.36,0 q 0.36,0.9 0.54,1.98 0.36,0.9 0.72,1.8 1.44,3.96 3.6,6.66 2.16,2.52 3.24,2.88 1.44,0.9 3.42,1.62 1.98,0.72 4.14,1.26 l 0,36.72 q -10.26,-0.36 -20.34,-3.24 -9.9,-2.7 -18.54,-8.64 -8.64,-5.76 -15.48,-15.12 -6.66,-9.54 -10.08,-23.22 l 42.48,-2.34 z m 43.2,-53.819996 q -1.44,-6.3 -4.14,-10.8 -2.7,-4.5 -6.3,-6.66 l 0,-37.62 q 20.34,0.9 35.82,13.5 15.66,12.42 24.3,36.9 l -49.68,4.68 z"
         style="font-style:normal;font-variant:normal;font-weight:900;font-stretch:normal;font-size:180px;font-family:stencilla;-inkscape-font-specification:'stencilla Heavy';text-align:center;text-anchor:middle"
         id="path3468" />
      <path
         d="m -746.12176,198.68359 -49.32,0 0,-154.259996 49.5,0 -0.18,154.259996 z m 36.18,-102.239996 q 0,-5.94 -1.62,-9.18 -1.44,-3.24 -4.32,-4.68 -2.7,-1.44 -6.66,-1.62 -3.78,-0.18 -8.46,-0.18 l -4.14,0 0,-36.36 15.3,0 q 14.58,0 25.56,2.7 11.16,2.7 18.54,8.82 7.38,5.94 11.16,15.84 3.78,9.9 3.78,24.3 0,14.399996 -3.78,24.479996 -3.78,10.08 -11.16,16.38 -7.38,6.3 -18.54,9.18 -10.98,2.88 -25.56,2.88 l -15.3,0.18 0,-36.18 4.14,0 q 4.68,0 8.46,-0.36 3.96,-0.36 6.66,-1.98 2.88,-1.62 4.32,-4.86 1.62,-3.42 1.62,-9.359996 z"
         style="font-style:normal;font-variant:normal;font-weight:900;font-stretch:normal;font-size:180px;font-family:stencilla;-inkscape-font-specification:'stencilla Heavy';text-align:center;text-anchor:middle"
         id="path3470" />
      <path
         d="m -603.91051,198.68359 -49.5,0 0,-154.259996 49.5,0 0,154.259996 z m 84.24,-154.259996 0,36.18 -73.44,0 0,-36.18 73.44,0 z m 0,118.079996 0,36.18 -73.44,0 0,-36.18 73.44,0 z m -11.52,-58.68 0,36.18 -61.92,0 0,-36.18 61.92,0 z"
         style="font-style:normal;font-variant:normal;font-weight:900;font-stretch:normal;font-size:180px;font-family:stencilla;-inkscape-font-specification:'stencilla Heavy';text-align:center;text-anchor:middle"
         id="path3472" />
      <path
         d="m -355.32207,44.423594 0,154.259996 -46.98,0 -10.44,-19.44 0.18,0 -71.64,-134.819996 36.72,0 43.38,83.339996 0,-7.2 q 0,-9.36 -0.18,-19.98 0,-10.619996 -0.18,-20.879996 0,-10.26 0,-19.44 0,-9.18 0,-15.84 l 49.14,0 z m -139.86,154.259996 0,-152.639996 49.14,92.699996 0,59.94 -49.14,0 z"
         style="font-style:normal;font-variant:normal;font-weight:900;font-stretch:normal;font-size:180px;font-family:stencilla;-inkscape-font-specification:'stencilla Heavy';text-align:center;text-anchor:middle"
         id="path3474" />
      <path
         d="m -209.96082,44.423594 0,36.18 -45.9,0 0,118.079996 -49.14,0 0,-118.079996 -0.36,0 0,-36.18 z m -134.27314,0 34.38,0 0,36.18 -34.38,0 z"
         style="font-style:normal;font-variant:normal;font-weight:900;font-stretch:normal;font-size:180px;font-family:stencilla;-inkscape-font-specification:'stencilla Heavy';text-align:center;text-anchor:middle"
         id="path3476"
         inkscape:connector-curvature="0"
         sodipodi:nodetypes="cccccccccccccc" />
      <path
         d="m -1244.92,423.68359 -52.02,0 27.18,-75.78 28.26,-78.66 43.92,0 -16.2,52.74 -31.14,101.7 z m 36.9,-82.62 21.78,-71.82 0.36,0 55.98,154.44 -52.2,0 -9.18,-28.8 -34.02,0 11.52,-36.18 11.34,0 -5.58,-17.64 z"
         style="font-style:normal;font-variant:normal;font-weight:900;font-stretch:normal;font-size:180px;font-family:stencilla;-inkscape-font-specification:'stencilla Heavy';text-align:center;text-anchor:middle"
         id="path3478" />
      <path
         d="m -984.0916,269.42359 0,154.26 -46.98,0 -10.44,-19.44 0.18,0 -71.64,-134.82 36.72,0 43.38,83.34 0,-7.2 q 0,-9.36 -0.18,-19.98 0,-10.62 -0.18,-20.88 0,-10.26 0,-19.44 0,-9.18 0,-15.84 l 49.14,0 z m -139.86,154.26 0,-152.64 49.14,92.7 0,59.94 -49.14,0 z"
         style="font-style:normal;font-variant:normal;font-weight:900;font-stretch:normal;font-size:180px;font-family:stencilla;-inkscape-font-specification:'stencilla Heavy';text-align:center;text-anchor:middle"
         id="path3480" />
      <path
         d="m -838.73035,269.42359 0,36.18 -45.9,0 0,118.08 -49.14,0 0,-118.08 -0.36,0 0,-36.18 z m -134.27314,0 34.38,0 0,36.18 -34.38,0 z"
         style="font-style:normal;font-variant:normal;font-weight:900;font-stretch:normal;font-size:180px;font-family:stencilla;-inkscape-font-specification:'stencilla Heavy';text-align:center;text-anchor:middle"
         id="path3482"
         inkscape:connector-curvature="0"
         sodipodi:nodetypes="cccccccccccccc" />
      <path
         d="m -778.7791,269.42359 0,154.26 -49.32,0 0,-154.26 49.32,0 z"
         style="font-style:normal;font-variant:normal;font-weight:900;font-stretch:normal;font-size:180px;font-family:stencilla;-inkscape-font-specification:'stencilla Heavy';text-align:center;text-anchor:middle"
         id="path3484" />
      <path
         d="m -706.57098,423.68359 -49.32,0 0,-154.26 49.32,0 0,154.26 z m 84.42,-154.26 0,36.18 -73.62,0 0,-36.18 73.62,0 z m -11.52,59.4 0,36.18 -62.1,0 0,-36.18 62.1,0 z"
         style="font-style:normal;font-variant:normal;font-weight:900;font-stretch:normal;font-size:180px;font-family:stencilla;-inkscape-font-specification:'stencilla Heavy';text-align:center;text-anchor:middle"
         id="path3486" />
      <path
         d="m -541.77535,269.42359 q 14.58,0 25.56,2.16 10.98,2.16 18.18,7.56 7.38,5.4 10.98,14.76 3.78,9.36 3.78,23.76 0,16.38 -9.72,27.18 -9.54,10.62 -26.28,15.66 6.12,6.3 12.06,14.22 6.12,7.92 11.7,16.38 5.58,8.46 10.26,16.92 4.68,8.46 8.28,15.66 l -54.72,0 -12.06,-23.04 -11.88,-23.22 -1.26,-2.52 0,-46.08 19.08,0 q 1.98,0 3.42,-3.24 1.62,-3.42 1.62,-8.46 0,-4.86 -1.62,-8.1 -1.44,-3.42 -3.42,-3.42 l -19.08,0 0,-36.18 15.12,0 z m -26.28,154.26 -49.32,0 0,-154.26 49.68,0 -0.36,154.26 z"
         style="font-style:normal;font-variant:normal;font-weight:900;font-stretch:normal;font-size:180px;font-family:stencilla;-inkscape-font-specification:'stencilla Heavy';text-align:center;text-anchor:middle"
         id="path3488" />
      <path
         d="m -419.16441,423.68359 -49.5,0 0,-154.26 49.5,0 0,154.26 z m 84.24,-154.26 0,36.18 -73.44,0 0,-36.18 73.44,0 z m 0,118.08 0,36.18 -73.44,0 0,-36.18 73.44,0 z m -11.52,-58.68 0,36.18 -61.92,0 0,-36.18 61.92,0 z"
         style="font-style:normal;font-variant:normal;font-weight:900;font-stretch:normal;font-size:180px;font-family:stencilla;-inkscape-font-specification:'stencilla Heavy';text-align:center;text-anchor:middle"
         id="path3490" />
      <path
         d="m -262.01598,423.68359 -49.5,0 0,-154.26 49.5,0 0,154.26 z m 84.24,-154.26 0,36.18 -73.44,0 0,-36.18 73.44,0 z m 0,118.08 0,36.18 -73.44,0 0,-36.18 73.44,0 z m -11.52,-58.68 0,36.18 -61.92,0 0,-36.18 61.92,0 z"
         style="font-style:normal;font-variant:normal;font-weight:900;font-stretch:normal;font-size:180px;font-family:stencilla;-inkscape-font-specification:'stencilla Heavy';text-align:center;text-anchor:middle"
         id="path3492" />
      <path
         d="m -25.127539,269.42359 -71.28,118.08 0.18,0 -21.600001,36.18 -50.76,0 71.100001,-118.08 -0.18,0 21.78,-36.18 50.76,0 z m -2.88,118.08 0,36.18 -77.040001,0 21.780001,-36.18 55.26,0 z m -130.860001,-118.08 70.020001,0 -21.600001,36.18 -48.42,0 0,-36.18 z"
         style="font-style:normal;font-variant:normal;font-weight:900;font-stretch:normal;font-size:180px;font-family:stencilla;-inkscape-font-specification:'stencilla Heavy';text-align:center;text-anchor:middle"
         id="path3494" />
      <path
         d="m 36.109023,423.68359 -49.5,0 0,-154.26 49.5,0 0,154.26 z m 84.239997,-154.26 0,36.18 -73.439997,0 0,-36.18 73.439997,0 z m 0,118.08 0,36.18 -73.439997,0 0,-36.18 73.439997,0 z m -11.52,-58.68 0,36.18 -61.919997,0 0,-36.18 61.919997,0 z"
         style="font-style:normal;font-variant:normal;font-weight:900;font-stretch:normal;font-size:180px;font-family:stencilla;-inkscape-font-specification:'stencilla Heavy';text-align:center;text-anchor:middle"
         id="path3496" />
      <path
         d="m -783.55473,571.46359 q 0,-18.54 -5.76,-29.7 -5.76,-11.34 -13.86,-14.22 l 0,-36.9 q 13.68,0.72 26.1,5.4 12.42,4.68 21.96,14.4 9.54,9.54 15.12,24.66 5.76,14.94 5.76,36.36 0,21.6 -5.76,36.72 -5.58,15.12 -15.12,24.66 -9.54,9.54 -21.96,14.04 -12.42,4.68 -26.1,5.4 l 0,-36.9 q 8.1,-2.88 13.86,-14.04 5.76,-11.34 5.76,-29.88 z m -98.46,0 q 0,-21.24 5.58,-36.18 5.58,-15.12 14.94,-24.66 9.36,-9.72 21.6,-14.4 12.42,-4.86 25.92,-5.58 l 0,37.08 q -7.92,3.06 -13.5,14.4 -5.4,11.16 -5.4,29.34 0,18.36 5.4,29.52 5.58,11.16 13.5,14.22 l 0,37.08 q -13.5,-0.72 -25.92,-5.4 -12.24,-4.5 -21.6,-14.04 -9.36,-9.72 -14.94,-24.66 -5.58,-15.12 -5.58,-36.72 z"
         style="font-style:normal;font-variant:normal;font-weight:900;font-stretch:normal;font-size:180px;font-family:stencilla;-inkscape-font-specification:'stencilla Heavy';text-align:center;text-anchor:middle"
         id="path3498" />
      <path
         d="m -580.14629,494.42359 0,154.26 -46.98,0 -10.44,-19.44 0.18,0 -71.64,-134.82 36.72,0 43.38,83.34 0,-7.2 q 0,-9.36 -0.18,-19.98 0,-10.62 -0.18,-20.88 0,-10.26 0,-19.44 0,-9.18 0,-15.84 l 49.14,0 z m -139.86,154.26 0,-152.64 49.14,92.7 0,59.94 -49.14,0 z"
         style="font-style:normal;font-variant:normal;font-weight:900;font-stretch:normal;font-size:180px;font-family:stencilla;-inkscape-font-specification:'stencilla Heavy';text-align:center;text-anchor:middle"
         id="path3500" />
      <path
         d="m -563.75785,494.42359 49.14,0 0,154.26 -49.14,0 0,-154.26 z m 124.74,118.08 0,36.18 -64.8,0 0,-36.18 64.8,0 z"
         style="font-style:normal;font-variant:normal;font-weight:900;font-stretch:normal;font-size:180px;font-family:stencilla;-inkscape-font-specification:'stencilla Heavy';text-align:center;text-anchor:middle"
         id="path3502" />
      <path
         d="m -333.09629,518.90359 -0.18,0 14.94,-24.48 53.1,0 -60.12,83.7 0,70.56 -49.14,0 0,-61.02 41.4,-68.76 z m -71.82,16.74 -29.7,-41.22 52.92,0 25.38,41.58 -22.14,36.72 -26.46,-37.08 z"
         style="font-style:normal;font-variant:normal;font-weight:900;font-stretch:normal;font-size:180px;font-family:stencilla;-inkscape-font-specification:'stencilla Heavy';text-align:center;text-anchor:middle"
         id="path3504" />
    </g>
  </g>
</svg>
