<?xml version="1.0" encoding="UTF-8" standalone="no"?>
<!-- Created with Inkscape (http://www.inkscape.org/) -->

<svg
   xmlns:dc="http://purl.org/dc/elements/1.1/"
   xmlns:cc="http://creativecommons.org/ns#"
   xmlns:rdf="http://www.w3.org/1999/02/22-rdf-syntax-ns#"
   xmlns:svg="http://www.w3.org/2000/svg"
   xmlns="http://www.w3.org/2000/svg"
   xmlns:sodipodi="http://sodipodi.sourceforge.net/DTD/sodipodi-0.dtd"
   xmlns:inkscape="http://www.inkscape.org/namespaces/inkscape"
   width="210mm"
   height="297mm"
   viewBox="0 0 744.09448819 1052.3622047"
   id="svg4947"
   version="1.1"
   inkscape:version="0.91 r13725"
   sodipodi:docname="carrot.svg">
  <defs
     id="defs4949" />
  <sodipodi:namedview
     id="base"
     pagecolor="#ffffff"
     bordercolor="#666666"
     borderopacity="1.0"
     inkscape:pageopacity="0.0"
     inkscape:pageshadow="2"
     inkscape:zoom="0.98994949"
     inkscape:cx="339.19154"
     inkscape:cy="520"
     inkscape:document-units="px"
     inkscape:current-layer="layer1"
     showgrid="false"
     inkscape:window-width="1920"
     inkscape:window-height="983"
     inkscape:window-x="0"
     inkscape:window-y="27"
     inkscape:window-maximized="1" />
  <metadata
     id="metadata4952">
    <rdf:RDF>
      <cc:Work
         rdf:about="">
        <dc:format>image/svg+xml</dc:format>
        <dc:type
           rdf:resource="http://purl.org/dc/dcmitype/StillImage" />
        <dc:title></dc:title>
      </cc:Work>
    </rdf:RDF>
  </metadata>
  <g
     inkscape:label="Layer 1"
     inkscape:groupmode="layer"
     id="layer1">
    <path
       style="fill:#008f00;fill-opacity:1"
       d="m 219.52596,469.73842 c -5.9629,-6.14402 -8.19472,-15.56049 -10.07927,-23.81272 -1.17862,-8.18851 0.26489,-16.61317 5.49903,-23.11438 -3.59601,-10.31606 15.73934,-2.28479 12.49556,-12.70958 -4.97101,-10.26513 13.23169,-2.33376 14.0119,-11.64224 -6.78361,-9.73725 11.51111,-7.00004 13.58604,-14.89448 -1.05429,-9.99703 -14.69615,-9.76469 -22.03602,-11.32452 3.42344,-6.37782 13.84101,-8.21304 14.20039,-16.79867 -0.47358,-11.31255 -13.42456,-8.7223 -19.85827,-12.83589 -4.4794,-3.67504 -13.53649,10.50629 -14.59019,-1.62288 -7.46676,3.4303 -10.25783,11.96878 -14.83034,18.18708 -4.11273,-7.88911 -7.42422,4.31704 -9.61219,7.73136 -5.21064,4.7275 -0.60493,19.09535 -9.06315,18.18628 -3.21145,7.0868 0.007,15.15076 1.49525,22.32279 -6.57688,5.36184 2.65213,16.25386 3.82551,23.40415 2.07581,2.99794 5.3884,15.11646 -0.73124,7.46924 -10.7355,-13.44586 -16.02233,-30.02715 -22.87453,-45.5405 -1.24408,-7.9094 -10.44697,-3.97247 -13.07831,-7.3144 0.54145,-7.39291 -1.62127,-21.07724 -11.78715,-18.43788 -8.18867,3.97079 -2.36966,-15.06837 -11.75797,-16.00963 -6.84739,-3.60645 -6.68678,10.74732 -12.99031,3.06552 -5.33148,-5.17102 -14.917978,-4.60543 -18.406068,2.38411 -3.24765,5.24413 -1.80822,11.90982 1.75744,16.58259 -6.11855,4.33032 -5.16205,13.36304 2.40461,15.75467 4.699778,2.5164 18.000498,3.97079 7.016238,8.83533 -3.3779,9.2339 9.00959,12.24943 15.75423,13.14479 4.80704,0.0912 14.2403,1.73495 7.06608,6.74916 7.59482,6.44568 18.29179,6.65014 27.03402,10.93128 9.67712,4.31047 19.31886,9.72923 26.59334,17.50021 -7.0563,1.38579 -17.37396,-6.37315 -25.8189,-7.74311 -5.60483,-3.90125 -5.90073,5.89971 -11.57861,0.96059 -5.0774,-0.86784 -18.6792,-5.30827 -17.52049,3.2748 -8.02587,1.99007 -16.46409,3.57733 -23.70019,8.0733 -4.183798,1.97364 -7.174808,4.20736 -2.289828,6.96691 -6.28901,4.39212 -15.36267,7.64495 -18.07026,15.24642 10.0673,0.45534 2.08427,8.1694 0.0511,12.94258 7.10701,4.67051 1.13864,18.58638 12.02906,20.48056 8.751118,2.45387 12.490808,-7.98784 17.512828,-12.95615 4.9818,-0.081 1.02458,12.58079 5.68211,16.29896 4.50756,10.66099 13.59749,1.21883 14.61172,-6.14905 0.71803,-9.00682 10.0079,2.24181 12.02723,-6.40876 1.71511,-4.98779 -0.0219,-14.76547 8.3538,-9.67085 8.83022,0.12843 1.56048,-16.51481 12.398,-13.13683 8.00674,-7.06856 19.90511,-6.35001 29.4684,-3.40687 6.29208,0.22621 13.69586,8.1297 17.89009,6.94239 2.63521,-2.6352 5.27048,-5.27041 7.90569,-7.90568 z"
       id="path4149"
       inkscape:connector-curvature="0"
       inkscape:export-filename="/home/cwc/http/tritechsc.org/img/greengrocer.png"
       inkscape:export-xdpi="90"
       inkscape:export-ydpi="90" />
    <path
       style="fill:#ff6600"
       d="m 434.09716,700.75211 c 4.92452,-10.23551 -3.91088,-22.86716 -6.97318,-33.16571 -18.17651,-41.03621 -39.32519,-80.83009 -63.2227,-118.8194 -2.45744,-4.64687 -6.14781,-15.39784 -10.39377,-15.89185 -16.01394,-13.37267 -46.88251,27.25892 -48.26188,23.50799 7.79141,-16.31056 22.35876,-27.52578 36.3943,-38.15386 2.83186,-12.22958 -11.19879,-23.27039 -16.46584,-34.05829 -10.63932,-14.51124 -20.39978,-29.85653 -32.5712,-43.13712 -14.25001,-7.36577 -30.88368,-0.43491 -44.37348,5.62563 -37.57271,17.27787 -69.04913,52.23544 -74.6239,94.12126 -3.53735,13.09151 7.14693,21.66765 17.38075,27.23016 l 14.98234,8.0663 c 8.34293,-9.35394 13.63333,-20.83411 26.52242,-23.64787 3.86965,8.18902 -21.42583,30.52451 -14.10552,35.43159 15.18557,13.86268 41.33284,32.22526 61.0051,38.70217 13.61253,-1.24971 16.72183,-21.28069 31.00627,-23.77536 6.63672,3.71452 -7.31235,15.8877 -8.06439,23.63226 -7.86752,15.12653 16.36791,19.18219 24.52038,27.06284 29.45345,16.64105 59.03766,33.67395 90.90827,45.28393 5.08288,1.01321 11.27053,4.19825 16.33603,1.98533 z"
       id="path4149-3"
       inkscape:connector-curvature="0"
       sodipodi:nodetypes="cccccccccccccccccccc"
       inkscape:export-filename="/home/cwc/http/tritechsc.org/img/greengrocer.png"
       inkscape:export-xdpi="90"
       inkscape:export-ydpi="90" />
    <path
       style="fill:#008f00;fill-opacity:1"
       d="m 402.05995,251.53849 c -1.66921,-1.71991 -2.29397,-4.3559 -2.82152,-6.66597 -0.32994,-2.29224 0.0742,-4.65058 1.53936,-6.47049 -1.00664,-2.8878 4.40596,-0.63958 3.49792,-3.55783 -1.39155,-2.87355 3.70399,-0.6533 3.9224,-3.25905 -1.89896,-2.72578 3.22234,-1.95955 3.80318,-4.16946 -0.29513,-2.7985 -4.11394,-2.73346 -6.16861,-3.17011 0.95833,-1.78537 3.87456,-2.29911 3.97516,-4.70251 -0.13257,-3.16676 -3.75798,-2.44166 -5.55899,-3.59319 -1.25393,-1.02877 -3.78931,2.94106 -4.08428,-0.4543 -2.09019,0.96026 -2.87151,3.35046 -4.15151,5.09117 -1.15129,-2.20843 -2.07828,1.20848 -2.69077,2.16426 -1.45863,1.32339 -0.16934,5.34543 -2.53708,5.09095 -0.89899,1.98383 0.002,4.2412 0.41858,6.24889 -1.84109,1.50096 0.74241,4.55 1.07088,6.5516 0.58109,0.83923 1.5084,4.2316 -0.2047,2.09089 -3.00522,-3.76394 -4.48518,-8.4056 -6.40334,-12.7483 -0.34826,-2.21411 -2.92445,-1.11203 -3.66105,-2.04754 0.15157,-2.06953 -0.45385,-5.90023 -3.29962,-5.16138 -2.29228,1.11156 -0.66335,-4.21814 -3.29145,-4.48163 -1.91681,-1.00957 -1.87185,3.00853 -3.63642,0.85814 -1.49245,-1.44754 -4.17604,-1.28921 -5.15247,0.66739 -0.90912,1.46801 -0.50618,3.33396 0.49197,4.64202 -1.71279,1.2122 -1.44503,3.74076 0.67313,4.41026 1.31562,0.70442 5.03894,1.11156 1.96408,2.4733 -0.94559,2.58488 2.52208,3.42903 4.41013,3.67967 1.34565,0.0255 3.98634,0.48567 1.97803,1.88931 2.12605,1.80436 5.12048,1.8616 7.56772,3.06003 2.70895,1.20664 5.408,2.72354 7.44437,4.89889 -1.9753,0.38793 -4.86355,-1.78406 -7.22757,-2.16755 -1.56898,-1.09209 -1.65181,1.65152 -3.24124,0.2689 -1.42134,-0.24294 -5.22893,-1.48596 -4.90457,0.91672 -2.24671,0.55709 -4.60885,1.00142 -6.63447,2.25999 -1.17119,0.55249 -2.00847,1.17778 -0.641,1.95027 -1.76051,1.2295 -4.30053,2.14008 -5.05847,4.26798 2.81817,0.12746 0.58346,2.28689 0.0143,3.62306 1.98949,1.30743 0.31875,5.20295 3.36734,5.73319 2.44973,0.68692 3.49659,-2.23606 4.90242,-3.62686 1.39457,-0.0227 0.28682,3.52178 1.59061,4.56262 1.26182,2.98437 3.8064,0.34119 4.09031,-1.72132 0.201,-2.52131 2.80155,0.62756 3.36682,-1.79403 0.48012,-1.39624 -0.006,-4.13334 2.33851,-2.70719 2.47187,0.036 0.43683,-4.62304 3.47061,-3.67743 2.24136,-1.97873 5.57211,-1.77758 8.24919,-0.9537 1.76136,0.0633 3.83393,2.27577 5.00803,1.94341 0.73768,-0.73769 1.47538,-1.47537 2.21307,-2.21307 z"
       id="path4149-6"
       inkscape:connector-curvature="0"
       inkscape:export-filename="/home/cwc/http/tritechsc.org/img/greengrocer.png"
       inkscape:export-xdpi="90"
       inkscape:export-ydpi="90" />
    <path
       style="fill:#ff6600"
       d="m 462.12557,316.20692 c 1.37854,-2.86526 -1.09478,-6.40128 -1.95202,-9.28419 -5.08821,-11.4874 -11.00843,-22.62703 -17.69814,-33.26151 -0.68792,-1.30081 -1.72098,-4.31037 -2.90956,-4.44866 -4.48284,-3.74345 -13.12398,7.63068 -13.51011,6.58067 2.18108,-4.56586 6.25896,-7.70538 10.18798,-10.68053 0.79273,-3.42347 -3.13492,-6.51416 -4.60934,-9.53405 -2.9783,-4.06218 -5.71058,-8.35784 -9.11776,-12.07552 -3.98906,-2.06192 -8.64537,-0.12174 -12.42162,1.5748 -10.51785,4.83665 -19.32915,14.62244 -20.88971,26.34768 -0.99022,3.66475 2.00066,6.06549 4.86545,7.62263 l 4.19405,2.25802 c 2.33547,-2.61848 3.81643,-5.83216 7.42451,-6.61982 1.08325,2.29238 -5.9978,8.54482 -3.9486,9.91848 4.25094,3.88062 11.57044,9.02092 17.07736,10.83402 3.8106,-0.34983 4.68099,-5.95717 8.67968,-6.65551 1.85784,1.03982 -2.04697,4.4475 -2.25749,6.61546 -2.20238,4.23441 4.58193,5.36973 6.86407,7.57579 8.245,4.65838 16.52661,9.42646 25.44825,12.67648 1.42287,0.28363 3.155,1.17523 4.573,0.55576 z"
       id="path4149-3-3"
       inkscape:connector-curvature="0"
       sodipodi:nodetypes="cccccccccccccccccccc"
       inkscape:export-filename="/home/cwc/http/tritechsc.org/img/greengrocer.png"
       inkscape:export-xdpi="90"
       inkscape:export-ydpi="90" />
  </g>
</svg>
