<?xml version="1.0" encoding="UTF-8" standalone="no"?>
<!-- Created with Inkscape (http://www.inkscape.org/) -->

<svg
   xmlns:dc="http://purl.org/dc/elements/1.1/"
   xmlns:cc="http://creativecommons.org/ns#"
   xmlns:rdf="http://www.w3.org/1999/02/22-rdf-syntax-ns#"
   xmlns:svg="http://www.w3.org/2000/svg"
   xmlns="http://www.w3.org/2000/svg"
   xmlns:sodipodi="http://sodipodi.sourceforge.net/DTD/sodipodi-0.dtd"
   xmlns:inkscape="http://www.inkscape.org/namespaces/inkscape"
   width="744.09448819"
   height="1052.3622047"
   id="svg5019"
   version="1.1"
   inkscape:version="0.48.5 r10040"
   sodipodi:docname="cyber.svg"
   inkscape:export-filename="/home/cwc/html/image-development/cyber.svg.png"
   inkscape:export-xdpi="90"
   inkscape:export-ydpi="90">
  <defs
     id="defs5021" />
  <sodipodi:namedview
     id="base"
     pagecolor="#ffffff"
     bordercolor="#666666"
     borderopacity="1.0"
     inkscape:pageopacity="0.0"
     inkscape:pageshadow="2"
     inkscape:zoom="1.979899"
     inkscape:cx="-160.39334"
     inkscape:cy="594.96775"
     inkscape:document-units="px"
     inkscape:current-layer="layer1"
     showgrid="false"
     inkscape:window-width="1920"
     inkscape:window-height="969"
     inkscape:window-x="0"
     inkscape:window-y="35"
     inkscape:window-maximized="1" />
  <metadata
     id="metadata5024">
    <rdf:RDF>
      <cc:Work
         rdf:about="">
        <dc:format>image/svg+xml</dc:format>
        <dc:type
           rdf:resource="http://purl.org/dc/dcmitype/StillImage" />
        <dc:title></dc:title>
      </cc:Work>
    </rdf:RDF>
  </metadata>
  <g
     inkscape:label="Layer 1"
     inkscape:groupmode="layer"
     id="layer1">
    <flowRoot
       xml:space="preserve"
       id="flowRoot3000-3-1"
       style="font-size:40px;font-style:normal;font-weight:normal;line-height:125%;letter-spacing:0px;word-spacing:0px;fill:#000000;fill-opacity:1;stroke:none;font-family:Sans"
       transform="translate(13.299184,61.771029)"><flowRegion
         id="flowRegion3002-8-1"><rect
           id="rect3004-5-5"
           width="222.23355"
           height="194.45436"
           x="-555.58392"
           y="309.90005" /></flowRegion><flowPara
         id="flowPara3006-6-9"
         style="font-size:64px;font-style:normal;font-variant:normal;font-weight:normal;font-stretch:normal;font-family:Karla;-inkscape-font-specification:Karla">#</flowPara></flowRoot>    <flowRoot
       xml:space="preserve"
       id="flowRoot3062"
       style="font-size:40px;font-style:normal;font-weight:normal;line-height:125%;letter-spacing:0px;word-spacing:0px;fill:#000000;fill-opacity:1;stroke:none;font-family:Sans"><flowRegion
         id="flowRegion3064"><rect
           id="rect3066"
           width="85.357887"
           height="53.033009"
           x="-531.34021"
           y="273.53458" /></flowRegion><flowPara
         id="flowPara3068"
         style="-inkscape-font-specification:Karla;font-family:Karla;font-weight:normal;font-style:normal;font-stretch:normal;font-variant:normal">E</flowPara></flowRoot>    <g
       id="g4014"
       transform="matrix(0.89285719,0,0,0.89285719,-39.172873,61.765377)"
       inkscape:export-filename="/home/cwc/html/img/cyber.png"
       inkscape:export-xdpi="90"
       inkscape:export-ydpi="90">
      <path
         inkscape:export-ydpi="90"
         inkscape:export-xdpi="90"
         inkscape:export-filename="/home/cwc/html/img/cyber.png"
         transform="matrix(0.88487584,0,0,0.88487584,-474.959,-84.845636)"
         d="m 439.99998,589.14789 c 0,87.37933 -70.83494,158.21428 -158.21427,158.21428 -87.37934,0 -158.21428,-70.83495 -158.21428,-158.21428 0,-87.37934 70.83494,-158.21428 158.21428,-158.21428 87.37933,0 158.21427,70.83494 158.21427,158.21428 z"
         sodipodi:ry="158.21428"
         sodipodi:rx="158.21428"
         sodipodi:cy="589.14789"
         sodipodi:cx="281.78571"
         id="path4880-0"
         style="fill:#ff0000;fill-opacity:1;stroke:none"
         sodipodi:type="arc" />
      <path
         inkscape:export-ydpi="90"
         inkscape:export-xdpi="90"
         inkscape:export-filename="/home/cwc/html/img/cyber.png"
         transform="matrix(0.78781037,0,0,0.78781037,-447.60734,-27.65972)"
         d="m 439.99998,589.14789 c 0,87.37933 -70.83494,158.21428 -158.21427,158.21428 -87.37934,0 -158.21428,-70.83495 -158.21428,-158.21428 0,-87.37934 70.83494,-158.21428 158.21428,-158.21428 87.37933,0 158.21427,70.83494 158.21427,158.21428 z"
         sodipodi:ry="158.21428"
         sodipodi:rx="158.21428"
         sodipodi:cy="589.14789"
         sodipodi:cx="281.78571"
         id="path4880"
         style="fill:#999999;fill-opacity:1;stroke:none"
         sodipodi:type="arc" />
      <rect
         inkscape:export-ydpi="90"
         inkscape:export-xdpi="90"
         inkscape:export-filename="/home/cwc/html/img/cyber.png"
         y="374.08777"
         x="-304.69751"
         height="19.298517"
         width="14.831267"
         id="rect5051"
         style="fill:#ffff00;fill-opacity:1;stroke:none" />
      <g
         inkscape:export-ydpi="90"
         inkscape:export-xdpi="90"
         inkscape:export-filename="/home/cwc/html/img/cyber.png"
         style="fill:#000000"
         id="g4011">
        <path
           style="fill:#000000;stroke:#000000;stroke-opacity:1"
           d="m -315.48485,487.07435 c 3.16778,-1.08027 8.15345,-1.08027 11.32122,0 1.93411,0.65956 2.47652,1.22739 2.47652,2.59258 0,2.42736 -2.55425,3.53791 -8.13713,3.53791 -5.15867,1.25994 -11.33725,-4.01113 -5.66061,-6.13049 z m 21.93487,5.23556 c -2.77636,-1.40461 -2.40193,-4.17517 0.70757,-5.23556 3.16778,-1.08027 8.15345,-1.08027 11.32122,0 1.9341,0.65956 2.47652,1.22739 2.47652,2.59258 0,2.42736 -2.55425,3.53791 -8.13713,3.53791 -2.52958,0 -5.39527,-0.40272 -6.36818,-0.89493 z m -28.54787,-12.70505 c -6.23587,-12.71943 -8.94533,-25.73927 -8.94533,-42.98525 0,-15.86417 2.46543,-28.85912 7.67635,-40.46106 2.25626,-5.02348 6.45022,-11.83286 8.16398,-13.25515 0.73808,-0.61256 1.13557,-2.08205 1.14007,-4.21478 0.018,-8.52536 7.47166,-16.36451 15.55976,-16.36451 8.07686,0 15.54169,7.83985 15.55977,16.34147 0.005,2.3417 0.40106,3.60803 1.41574,4.52631 0.77486,0.70123 2.19456,2.6157 3.15488,4.25437 2.83592,5.98241 3.77505,12.31425 5.71417,19.20566 -39.826,-2.62411 -51.58057,34.43776 -41.09929,66.65127 l 1.08737,3.07371 -2.90303,4.88653 c -4.20325,8.13174 -3.93217,3.61856 -6.52444,-1.65857 z m 25.24646,-97.64552 c 1.06559,-2.18631 1.05251,-2.31075 -0.26541,-2.52572 -0.76242,-0.12436 -1.99916,-0.12436 -2.7483,0 -1.2577,0.20877 -1.28743,0.40233 -0.38794,2.52572 0.53577,1.2648 1.26814,2.29963 1.62749,2.29963 0.35934,0 1.15772,-1.03483 1.77416,-2.29963 z m 114.09848,101.7267 c -3.53627,-1.26007 -5.80083,-4.0675 -6.74459,-8.36146 -0.41049,-1.8677 -0.74636,-9.27072 -0.74636,-16.45115 l 0,-13.05533 4.91015,0 4.91014,0 0.21978,13.37156 c 0.19681,11.97384 0.36068,13.52705 1.56771,14.8591 2.8396,3.13372 8.23094,0.86932 9.59119,-4.02837 0.4004,-1.44167 0.72978,-7.47696 0.73195,-13.41176 l 0.004,-10.79053 4.95303,0 4.95304,0 0,18.75077 0,18.75076 -4.95304,0 -4.95303,0 0,-2.62011 0,-2.62012 -2.69371,2.63033 c -2.35576,2.30034 -6.06155,4.09026 -8.26905,3.994 -0.39174,-0.0171 -1.95825,-0.47504 -3.48115,-1.01769 z m -100.20154,-10.98005 c 3.49894,-12.3912 1.95566,-31.79023 -1.57207,-43.33006 -1.13305,-3.44309 -5.7204,-7.78605 -5.83936,-11.3628 0,0 8.66698,0.8668 12.36726,-0.97951 2.5037,-1.24925 5.56145,-6.28749 5.56145,-6.28749 2.63027,19.4241 2.82713,38.87674 2.96161,58.42198 l 8.45523,0 8.45523,0 0.71497,2.65341 c 0.39324,1.45938 1.19808,4.24546 1.78856,6.19129 0.59047,1.94584 1.07703,4.37813 1.08124,4.86459 l -36.22737,0 c 0.42229,-3.66029 1.36333,-6.99606 2.25325,-10.17141 z m 38.22722,-8.13712 0,-18.75077 4.95304,0 4.95303,0 0,18.75077 0,18.75076 -4.95303,0 -4.95304,0 z m 16.98183,0 0,-18.75077 4.95304,0 4.95303,0 0,2.61532 0,2.61531 2.29962,-2.21813 c 6.00991,-5.79694 14.12902,-4.75072 17.80475,2.29432 1.3313,2.55162 1.50021,4.27597 1.71543,17.51251 l 0.23872,14.6822 -5.01486,0 -5.01487,0 -0.004,-11.49811 c -0.002,-6.32396 -0.32544,-12.65553 -0.71837,-14.07015 -1.44253,-5.19335 -7.4525,-5.13584 -10.06712,0.0963 -1.02534,2.05182 -1.23735,4.44433 -1.23826,13.97381 l -7.1e-4,11.49811 -4.95303,0 -4.95304,0 0,-18.75076 z m 75.80944,12.91326 c 2.00551,-3.21063 4.71438,-7.51566 6.01971,-9.56675 l 2.37335,-3.72924 -1.89933,-2.99273 c -3.59272,-5.66096 -6.34729,-10.07384 -7.94115,-12.7219 l -1.59709,-2.65341 5.22375,0 5.22375,0 3.01935,5.30682 c 1.66065,2.91875 3.28012,5.30682 3.59883,5.30682 0.31871,0 1.94582,-2.38807 3.6158,-5.30682 l 3.03633,-5.30682 5.23835,0 5.23834,0 -1.60243,2.65341 c -0.88133,1.45937 -3.01627,4.88227 -4.7443,7.60644 -1.72803,2.72417 -3.58181,5.66073 -4.11951,6.5257 -0.88493,1.42354 -0.75229,1.92672 1.39887,5.30682 1.30707,2.05378 4.01735,6.36103 6.02286,9.57166 l 3.64637,5.8375 -5.25406,0 -5.25406,0 -3.3426,-5.6606 c -1.83844,-3.11334 -3.58536,-5.66061 -3.88204,-5.66061 -0.29669,0 -2.0328,2.54727 -3.85802,5.66061 l -3.31859,5.6606 -5.24442,0 -5.24443,0 z"
           id="path5038"
           inkscape:connector-curvature="0"
           sodipodi:nodetypes="cssccsssssscssssscsccccccsssssscsscccsssccccccccccsccccccaccccssccccccccccccccccccsssccccssccccccsscsscccssscccssssscccssscccs"
           inkscape:export-filename="/home/cwc/html/img/cyber.png"
           inkscape:export-xdpi="90"
           inkscape:export-ydpi="90" />
      </g>
      <flowRoot
         inkscape:export-ydpi="90"
         inkscape:export-xdpi="90"
         inkscape:export-filename="/home/cwc/html/img/cyber.png"
         transform="matrix(0.70757619,0,0,0.70757619,85.068186,233.05232)"
         style="font-size:40px;font-style:normal;font-weight:normal;line-height:125%;letter-spacing:0px;word-spacing:0px;fill:#ffffff;fill-opacity:1;stroke:none;font-family:Sans"
         id="flowRoot3000"
         xml:space="preserve"><flowRegion
           id="flowRegion3002"><rect
             style="fill:#ffffff"
             y="309.90005"
             x="-555.58392"
             height="162.1295"
             width="429.31482"
             id="rect3004" /></flowRegion><flowPara
           style="font-size:64px;font-style:normal;font-variant:normal;font-weight:normal;font-stretch:normal;fill:#ffffff;font-family:Karla;-inkscape-font-specification:Karla"
           id="flowPara3006">$ecurity</flowPara></flowRoot>      <flowRoot
         inkscape:export-ydpi="90"
         inkscape:export-xdpi="90"
         inkscape:export-filename="/home/cwc/html/img/cyber.png"
         transform="matrix(0.70757619,0,0,0.70757619,130.37065,164.54884)"
         style="font-size:40px;font-style:normal;font-weight:normal;line-height:125%;letter-spacing:0px;word-spacing:0px;fill:#ffffff;fill-opacity:1;stroke:none;font-family:Sans"
         id="flowRoot3000-3"
         xml:space="preserve"><flowRegion
           id="flowRegion3002-8"><rect
             style="fill:#ffffff"
             y="309.90005"
             x="-555.58392"
             height="194.45436"
             width="222.23355"
             id="rect3004-5" /></flowRegion><flowPara
           style="font-size:64px;font-style:normal;font-variant:normal;font-weight:normal;font-stretch:normal;fill:#ffffff;font-family:Karla;-inkscape-font-specification:Karla"
           id="flowPara3006-6">cyber</flowPara></flowRoot>      <path
         inkscape:export-ydpi="90"
         inkscape:export-xdpi="90"
         inkscape:export-filename="/home/cwc/html/img/cyber.png"
         transform="matrix(0.70757619,0,0,0.70757619,66.798954,124.07517)"
         d="m -424.26408,445.76559 c 0,4.74209 -3.84421,8.5863 -8.58629,8.5863 -4.74208,0 -8.5863,-3.84421 -8.5863,-8.5863 0,-4.74208 3.84422,-8.58629 8.5863,-8.58629 4.74208,0 8.58629,3.84421 8.58629,8.58629 z"
         sodipodi:ry="8.586297"
         sodipodi:rx="8.586297"
         sodipodi:cy="445.76559"
         sodipodi:cx="-432.85037"
         id="path3070"
         style="fill:#ffffff;fill-opacity:1;stroke:none"
         sodipodi:type="arc" />
      <path
         inkscape:export-ydpi="90"
         inkscape:export-xdpi="90"
         inkscape:export-filename="/home/cwc/html/img/cyber.png"
         transform="matrix(0.70757619,0,0,0.70757619,131.81111,154.34761)"
         d="m -424.26408,445.76559 c 0,4.74209 -3.84421,8.5863 -8.58629,8.5863 -4.74208,0 -8.5863,-3.84421 -8.5863,-8.5863 0,-4.74208 3.84422,-8.58629 8.5863,-8.58629 4.74208,0 8.58629,3.84421 8.58629,8.58629 z"
         sodipodi:ry="8.586297"
         sodipodi:rx="8.586297"
         sodipodi:cy="445.76559"
         sodipodi:cx="-432.85037"
         id="path3070-1"
         style="fill:#ffffff;fill-opacity:1;stroke:none"
         sodipodi:type="arc" />
    </g>
  </g>
</svg>
