<?xml version="1.0" encoding="UTF-8" standalone="no"?>
<!-- Created with Inkscape (http://www.inkscape.org/) -->

<svg
   xmlns:dc="http://purl.org/dc/elements/1.1/"
   xmlns:cc="http://creativecommons.org/ns#"
   xmlns:rdf="http://www.w3.org/1999/02/22-rdf-syntax-ns#"
   xmlns:svg="http://www.w3.org/2000/svg"
   xmlns="http://www.w3.org/2000/svg"
   xmlns:sodipodi="http://sodipodi.sourceforge.net/DTD/sodipodi-0.dtd"
   xmlns:inkscape="http://www.inkscape.org/namespaces/inkscape"
   width="210mm"
   height="297mm"
   viewBox="0 0 744.09448819 1052.3622047"
   id="svg2"
   version="1.1"
   inkscape:version="0.91 r13725"
   sodipodi:docname="green-gocer.svg">
  <defs
     id="defs4" />
  <sodipodi:namedview
     id="base"
     pagecolor="#ffffff"
     bordercolor="#666666"
     borderopacity="1.0"
     inkscape:pageopacity="0.0"
     inkscape:pageshadow="2"
     inkscape:zoom="0.49497475"
     inkscape:cx="18.069529"
     inkscape:cy="685.26911"
     inkscape:document-units="px"
     inkscape:current-layer="layer1"
     showgrid="false"
     inkscape:window-width="1920"
     inkscape:window-height="983"
     inkscape:window-x="0"
     inkscape:window-y="27"
     inkscape:window-maximized="1" />
  <metadata
     id="metadata7">
    <rdf:RDF>
      <cc:Work
         rdf:about="">
        <dc:format>image/svg+xml</dc:format>
        <dc:type
           rdf:resource="http://purl.org/dc/dcmitype/StillImage" />
        <dc:title></dc:title>
      </cc:Work>
    </rdf:RDF>
  </metadata>
  <g
     inkscape:label="Layer 1"
     inkscape:groupmode="layer"
     id="layer1">
    <rect
       style="fill:#ffffff;fill-opacity:1;stroke:#ff0000;stroke-width:21.29278374;stroke-miterlimit:4;stroke-dasharray:none;stroke-opacity:1"
       id="rect3075-3"
       width="638.78351"
       height="638.78351"
       x="44.263176"
       y="383.4577"
       rx="42.585567"
       ry="42.585567"
       inkscape:export-filename="/home/cwc/http/tritechsc.org/img/greengrocer.png"
       inkscape:export-xdpi="90"
       inkscape:export-ydpi="90" />
    <flowRoot
       xml:space="preserve"
       id="flowRoot3112"
       style="font-style:normal;font-weight:normal;font-size:40px;line-height:125%;font-family:Sans;letter-spacing:0px;word-spacing:0px;fill:#008f00;fill-opacity:1;stroke:none;stroke-width:0.25;stroke-miterlimit:4;stroke-dasharray:none;stroke-opacity:1"
       transform="matrix(4.2585566,0,0,4.2585566,-1330.4248,-1100.1165)"
       inkscape:export-filename="/home/cwc/http/tritechsc.org/img/greengrocer.png"
       inkscape:export-xdpi="90"
       inkscape:export-ydpi="90"><flowRegion
         id="flowRegion3114"><rect
           style="fill:#008f00;fill-opacity:1;stroke:none;stroke-width:0.25;stroke-miterlimit:4;stroke-dasharray:none;stroke-opacity:1"
           id="rect3116"
           width="169.28572"
           height="169.28572"
           x="280"
           y="343.07648" /></flowRegion><flowPara
         id="flowPara3118"
         style="font-style:normal;font-variant:normal;font-weight:normal;font-stretch:normal;font-family:Karla;-inkscape-font-specification:Karla;text-align:center;text-anchor:middle;fill:#008f00;fill-opacity:1;stroke:none;stroke-width:0.25;stroke-miterlimit:4;stroke-dasharray:none;stroke-opacity:1">The</flowPara><flowPara
         id="flowPara3122"
         style="font-style:normal;font-variant:normal;font-weight:normal;font-stretch:normal;font-family:Karla;-inkscape-font-specification:Karla;text-align:center;text-anchor:middle;fill:#008f00;fill-opacity:1;stroke:none;stroke-width:0.25;stroke-miterlimit:4;stroke-dasharray:none;stroke-opacity:1" /></flowRoot>    <flowRoot
       xml:space="preserve"
       id="flowRoot3112-6"
       style="font-style:normal;font-weight:normal;font-size:40px;line-height:125%;font-family:Sans;letter-spacing:0px;word-spacing:0px;fill:#008f00;fill-opacity:1;stroke:none;stroke-width:0.25;stroke-miterlimit:4;stroke-dasharray:none;stroke-opacity:1"
       transform="matrix(4.2585566,0,0,4.2585566,-1244.4193,-989.6129)"
       inkscape:export-filename="/home/cwc/http/tritechsc.org/img/greengrocer.png"
       inkscape:export-xdpi="90"
       inkscape:export-ydpi="90"><flowRegion
         id="flowRegion3114-3"><rect
           style="fill:#008f00;fill-opacity:1;stroke:none;stroke-width:0.25;stroke-miterlimit:4;stroke-dasharray:none;stroke-opacity:1"
           id="rect3116-9"
           width="169.28572"
           height="169.28572"
           x="280"
           y="343.07648" /></flowRegion><flowPara
         id="flowPara3118-4"
         style="font-style:normal;font-variant:normal;font-weight:normal;font-stretch:normal;font-family:Karla;-inkscape-font-specification:Karla;text-align:center;text-anchor:middle;fill:#008f00;fill-opacity:1;stroke:none;stroke-width:0.25;stroke-miterlimit:4;stroke-dasharray:none;stroke-opacity:1">Green</flowPara><flowPara
         id="flowPara3122-8"
         style="font-style:normal;font-variant:normal;font-weight:normal;font-stretch:normal;font-family:Karla;-inkscape-font-specification:Karla;text-align:center;text-anchor:middle;fill:#008f00;fill-opacity:1;stroke:none;stroke-width:0.25;stroke-miterlimit:4;stroke-dasharray:none;stroke-opacity:1" /></flowRoot>    <flowRoot
       xml:space="preserve"
       id="flowRoot3224"
       style="font-style:normal;font-weight:normal;font-size:40px;line-height:125%;font-family:Sans;text-align:center;letter-spacing:0px;word-spacing:0px;text-anchor:middle;fill:#d40000;fill-opacity:1;stroke:none"
       transform="matrix(4.2585566,0,0,4.2585566,-1534.7383,-810.80723)"
       inkscape:export-filename="/home/cwc/http/tritechsc.org/img/greengrocer.png"
       inkscape:export-xdpi="90"
       inkscape:export-ydpi="90"><flowRegion
         id="flowRegion3226"><rect
           id="rect3228"
           width="278.57141"
           height="238.57143"
           x="381.42856"
           y="387.36218"
           style="text-align:center;text-anchor:middle;fill:#d40000" /></flowRegion><flowPara
         id="flowPara3232"
         style="font-style:normal;font-variant:normal;font-weight:normal;font-stretch:normal;font-size:9px;font-family:Karla;-inkscape-font-specification:Karla;text-align:start;text-anchor:start;fill:#d40000">WSU </flowPara><flowPara
         id="flowPara3234"
         style="font-style:normal;font-variant:normal;font-weight:normal;font-stretch:normal;font-size:9px;font-family:Karla;-inkscape-font-specification:Karla;text-align:start;text-anchor:start;fill:#d40000">IMAGINE TOMORROW</flowPara><flowPara
         id="flowPara3236"
         style="font-style:normal;font-variant:normal;font-weight:normal;font-stretch:normal;font-size:9px;font-family:Karla;-inkscape-font-specification:Karla;text-align:start;text-anchor:start;fill:#d40000">PROGECT</flowPara></flowRoot>    <flowRoot
       xml:space="preserve"
       id="flowRoot3112-6-1"
       style="font-style:normal;font-weight:normal;font-size:40px;line-height:125%;font-family:Sans;letter-spacing:0px;word-spacing:0px;fill:#008f00;fill-opacity:1;stroke:none;stroke-width:0.25;stroke-miterlimit:4;stroke-dasharray:none;stroke-opacity:1"
       transform="matrix(4.2585566,0,0,4.2585566,-1213.8109,-878.58641)"
       inkscape:export-filename="/home/cwc/http/tritechsc.org/img/greengrocer.png"
       inkscape:export-xdpi="90"
       inkscape:export-ydpi="90"><flowRegion
         id="flowRegion3114-3-2"><rect
           style="fill:#008f00;fill-opacity:1;stroke:none;stroke-width:0.25;stroke-miterlimit:4;stroke-dasharray:none;stroke-opacity:1"
           id="rect3116-9-9"
           width="169.28572"
           height="169.28572"
           x="280"
           y="343.07648" /></flowRegion><flowPara
         id="flowPara3118-4-3"
         style="font-style:normal;font-variant:normal;font-weight:normal;font-stretch:normal;font-family:Karla;-inkscape-font-specification:Karla;text-align:center;text-anchor:middle;fill:#008f00;fill-opacity:1;stroke:none;stroke-width:0.25;stroke-miterlimit:4;stroke-dasharray:none;stroke-opacity:1">Grocer</flowPara><flowPara
         id="flowPara3122-8-9"
         style="font-style:normal;font-variant:normal;font-weight:normal;font-stretch:normal;font-family:Karla;-inkscape-font-specification:Karla;text-align:center;text-anchor:middle;fill:#008f00;fill-opacity:1;stroke:none;stroke-width:0.25;stroke-miterlimit:4;stroke-dasharray:none;stroke-opacity:1" /></flowRoot>    <g
       id="g6002"
       transform="matrix(0.62139352,0.16650189,-0.16650189,0.62139352,1164.5303,871.03236)"
       inkscape:export-xdpi="90"
       inkscape:export-ydpi="90">
      <path
         inkscape:connector-curvature="0"
         id="path4149"
         d="m -919.51653,198.59486 c -5.49005,-5.65682 -7.54494,-14.32666 -9.28003,-21.92457 -1.08521,-7.53917 0.24398,-15.29583 5.06299,-21.28153 -3.31086,-9.49806 14.4913,-2.10361 11.50472,-11.70183 -4.57684,-9.45119 12.18256,-2.1487 12.90084,-10.7191 -6.24565,-8.96516 10.59842,-6.44495 12.50881,-13.71342 -0.97067,-9.20433 -13.53089,-8.99043 -20.28873,-10.42661 3.15199,-5.87209 12.7435,-7.5618 13.07436,-15.466602 -0.43629,-10.415555 -12.36007,-8.030734 -18.28364,-11.818109 -4.12422,-3.383692 -12.46313,9.673203 -13.4333,-1.494235 -6.87469,3.158298 -9.44443,11.019781 -13.6544,16.744985 -3.78657,-7.263532 -6.8355,3.974761 -8.85001,7.118341 -4.79748,4.35264 -0.55675,17.58121 -8.34445,16.7442 -2.95683,6.52489 0.01,13.94946 1.37665,20.55276 -6.05536,4.93667 2.44184,14.96508 3.52217,21.5484 1.91122,2.76024 4.96117,13.91784 -0.67325,6.87698 -9.88425,-12.37974 -14.75187,-27.64625 -21.06075,-41.92945 -1.14542,-7.28224 -9.61856,-3.65752 -12.0413,-6.73442 0.49867,-6.80674 -1.49269,-19.40601 -10.8525,-16.97592 -7.53935,3.65593 -2.18176,-13.873526 -10.82565,-14.7402 -6.3045,-3.320483 -6.1566,9.895155 -11.9603,2.822475 -4.9087,-4.761022 -13.7351,-4.240226 -16.9466,2.195053 -2.9901,4.828289 -1.6648,10.965482 1.6181,15.267692 -5.6334,3.98697 -4.7527,12.30349 2.214,14.50549 4.3271,2.31685 16.5732,3.65588 6.4599,8.13473 -3.1101,8.50172 8.2952,11.27815 14.505,12.10247 4.4259,0.0843 13.11113,1.5974 6.5057,6.21406 6.99271,5.93457 16.84145,6.12283 24.89047,10.06446 8.90981,3.96873 17.78703,8.95782 24.48473,16.11255 -6.49677,1.27593 -15.99636,-5.86774 -23.77165,-7.12912 -5.16041,-3.59189 -5.43284,5.43195 -10.66055,0.88441 -4.67479,-0.79897 -17.1981,-4.88733 -16.1312,3.01517 -7.3895,1.83224 -15.1586,3.29363 -21.8209,7.4331 -3.8521,1.8172 -6.606,3.87379 -2.1083,6.41451 -5.7903,4.04387 -14.1446,7.03876 -16.6374,14.03752 9.269,0.419 1.919,7.5216 0.05,11.91631 6.5435,4.30016 1.0483,17.1126 11.0752,18.85657 8.0572,2.25936 11.5004,-7.35447 16.1242,-11.92881 4.5868,-0.0745 0.9433,11.58326 5.2316,15.00662 4.1501,9.81563 12.5193,1.12219 13.4531,-5.6615 0.66145,-8.29264 9.21433,2.06406 11.07356,-5.90059 1.57908,-4.59232 -0.0171,-13.59469 7.69138,-8.90403 8.13005,0.11791 1.43673,-15.2053 11.41496,-12.09518 7.37188,-6.50807 18.32676,-5.84649 27.13174,-3.13671 5.79316,0.20793 12.60991,7.48504 16.47155,6.39192 2.42628,-2.42628 4.85256,-4.85256 7.27883,-7.27884 z"
         style="fill:#5aa02c" />
      <path
         sodipodi:nodetypes="cccccccccccccccccccc"
         inkscape:connector-curvature="0"
         id="path4149-3"
         d="m -721.95928,411.29082 c 4.53404,-9.42389 -3.60078,-21.05395 -6.42027,-30.53587 -16.73523,-37.78239 -36.20694,-74.42091 -58.20958,-109.39788 -2.2626,-4.27845 -5.66032,-14.17692 -9.56959,-14.63178 -14.74418,-12.31231 -43.16509,25.09751 -44.4351,21.64399 7.17362,-15.01726 20.58591,-25.34319 33.50851,-35.12856 2.6073,-11.25981 -10.31081,-21.42521 -15.16019,-31.35767 -9.79572,-13.36059 -18.78222,-27.48914 -29.9886,-39.71665 -13.12005,-6.78172 -28.43478,-0.40034 -40.85497,5.17952 -34.59344,15.90789 -63.574,48.09353 -68.70674,86.6581 -3.25686,12.05348 6.58024,19.94963 16.00257,25.07102 l 13.79435,7.42669 c 7.68141,-8.61223 12.5523,-19.18208 24.41938,-21.77277 3.56281,7.53969 -19.7269,28.10418 -12.98705,32.62213 13.98148,12.7635 38.05543,29.67006 56.16784,35.63337 12.53314,-1.15058 15.39591,-19.59325 28.54773,-21.8901 6.11044,3.41994 -6.73257,14.62788 -7.42496,21.75835 -7.24371,13.92712 15.07005,17.66122 22.5761,24.91695 27.11796,15.32153 54.35638,31.00387 83.69988,41.69328 4.67983,0.93284 10.37686,3.86531 15.04069,1.82788 z"
         style="fill:#ff6600" />
    </g>
  </g>
</svg>
