<?xml version="1.0" encoding="UTF-8" standalone="no"?>
<!-- Created with Inkscape (http://www.inkscape.org/) -->

<svg
   xmlns:dc="http://purl.org/dc/elements/1.1/"
   xmlns:cc="http://creativecommons.org/ns#"
   xmlns:rdf="http://www.w3.org/1999/02/22-rdf-syntax-ns#"
   xmlns:svg="http://www.w3.org/2000/svg"
   xmlns="http://www.w3.org/2000/svg"
   xmlns:sodipodi="http://sodipodi.sourceforge.net/DTD/sodipodi-0.dtd"
   xmlns:inkscape="http://www.inkscape.org/namespaces/inkscape"
   width="744.09448819"
   height="1052.3622047"
   id="svg3948"
   version="1.1"
   inkscape:version="0.48.5 r10040"
   sodipodi:docname="tritechsc.svg">
  <defs
     id="defs3950" />
  <sodipodi:namedview
     id="base"
     pagecolor="#ffffff"
     bordercolor="#666666"
     borderopacity="1.0"
     inkscape:pageopacity="0.0"
     inkscape:pageshadow="2"
     inkscape:zoom="1.4"
     inkscape:cx="212.14286"
     inkscape:cy="497.5"
     inkscape:document-units="px"
     inkscape:current-layer="layer1"
     showgrid="false"
     inkscape:window-width="1920"
     inkscape:window-height="969"
     inkscape:window-x="0"
     inkscape:window-y="35"
     inkscape:window-maximized="1" />
  <metadata
     id="metadata3953">
    <rdf:RDF>
      <cc:Work
         rdf:about="">
        <dc:format>image/svg+xml</dc:format>
        <dc:type
           rdf:resource="http://purl.org/dc/dcmitype/StillImage" />
        <dc:title></dc:title>
      </cc:Work>
    </rdf:RDF>
  </metadata>
  <g
     inkscape:label="Layer 1"
     inkscape:groupmode="layer"
     id="layer1">
    <g
       id="g4987">
      <path
         inkscape:export-ydpi="90"
         inkscape:export-xdpi="90"
         inkscape:export-filename="/home/cwc/html/img/profile.png"
         transform="matrix(0.88487584,0,0,0.88487584,73.355026,94.789444)"
         d="m 439.99998,589.14789 a 158.21428,158.21428 0 1 1 -316.42855,0 158.21428,158.21428 0 1 1 316.42855,0 z"
         sodipodi:ry="158.21428"
         sodipodi:rx="158.21428"
         sodipodi:cy="589.14789"
         sodipodi:cx="281.78571"
         id="path4880-0"
         style="fill:#cccccc;fill-opacity:1;stroke:none"
         sodipodi:type="arc" />
      <path
         inkscape:export-ydpi="90"
         inkscape:export-xdpi="90"
         inkscape:export-filename="/home/cwc/html/img/profile.png"
         transform="matrix(0.78781037,0,0,0.78781037,100.70669,151.97536)"
         d="m 439.99998,589.14789 a 158.21428,158.21428 0 1 1 -316.42855,0 158.21428,158.21428 0 1 1 316.42855,0 z"
         sodipodi:ry="158.21428"
         sodipodi:rx="158.21428"
         sodipodi:cy="589.14789"
         sodipodi:cx="281.78571"
         id="path4880"
         style="fill:#999999;fill-opacity:1;stroke:none"
         sodipodi:type="arc" />
    </g>
    <g
       id="g4001"
       transform="translate(-37.302113,83.749991)"
       inkscape:export-filename="/home/cwc/html/img/profile.png"
       inkscape:export-xdpi="90"
       inkscape:export-ydpi="90">
      <path
         id="path3140"
         style="fill:#ed1c24;fill-opacity:1;fill-rule:nonzero;stroke:none"
         d="m 376.03887,488.79031 -37.1912,87.14375 -36.86,-43.5675 74.0512,-43.57625 z"
         inkscape:connector-curvature="0" />
      <path
         id="path3164"
         style="fill:#231f20;fill-opacity:1;fill-rule:nonzero;stroke:none"
         d="m 304.33227,548.11156 15.1688,-35.5375 c 1.0112,-2.36375 4.6425,-2.36375 3.6325,0 l -15.1725,35.5375 c -1.0088,2.36625 -4.6413,2.36625 -3.6288,0 m -5.7187,0 15.1712,-35.5375 c 1.0063,-2.36375 4.6375,-2.36375 3.6263,0 l -15.1725,35.5375 c -1.0063,2.36625 -4.645,2.36625 -3.625,0"
         inkscape:connector-curvature="0" />
      <path
         id="path3168"
         style="fill:#231f20;fill-opacity:1;fill-rule:nonzero;stroke:none"
         d="m 357.38107,516.10231 12.65,0 c 2.4762,0 1.2037,3.35875 -1.38,3.35875 l -9.5688,0 c 0,0 -8.005,18.755 -12.1362,28.44125 -1.0338,2.42125 -4.19,2.47375 -3.165,0.0575 4.5162,-10.56125 13.6,-31.8575 13.6,-31.8575 m -16.2863,31.965 c -1.0262,2.4175 -4.1437,2.365 -3.1025,-0.0575 4.1238,-9.6825 12.1363,-28.44125 12.1363,-28.44125 l -9.5675,0 c -2.5825,0 -0.9938,-3.35375 1.4925,-3.35375 l 12.6412,0 c 0,0 -9.09,21.2925 -13.6,31.8525 m 3.0963,-37.51625 28.6487,0 c 2.3663,0 0.8138,3.62875 -1.5512,3.62875 l -28.645,0 c -2.4213,0 -0.8738,-3.62875 1.5475,-3.62875"
         inkscape:connector-curvature="0" />
      <path
         id="path3172"
         style="fill:#231f20;fill-opacity:1;fill-rule:nonzero;stroke:none"
         d="m 389.76927,530.89968 c 2.525,0 0.7563,3.6325 -1.7212,3.6325 l -15.0263,0 c 0,0 -0.3237,5.7775 5.2263,5.7775 l 10.8762,0 c 2.535,0 1.0238,3.41375 -1.5675,3.41375 l -9.9925,0 c -12.1,0 -7.7775,-12.82375 -7.7775,-12.82375 l 19.9825,0 z m -19.1262,-2.0275 c 0,0 6.6312,-12.8225 18.735,-12.8225 l 9.9975,0 c 2.2612,0 0.855,3.41125 -1.3488,3.41125 l -10.87,0 c -5.5625,0 -10.1775,5.775 -10.1775,5.775 l 15.0338,0 c 2.4862,0 1.15,3.63625 -1.3838,3.63625 l -19.9862,0 z m 29.6687,-15.07625 c -3.35,0 -7.9112,-0.0575 -10.8837,-0.0575 -6.2163,0 -17.85,7.53375 -21.5588,16.2325 -3.7587,8.7975 0.9875,16.1175 8.8063,16.1175 l 10.3487,0 c 2.3663,0 0.8138,3.63125 -1.5512,3.63125 l -10.3538,0 c -9.9587,0 -15.55,-8.8025 -10.8825,-19.74875 4.6725,-10.9475 18.0238,-19.80375 26.7188,-19.80375 2.9737,0 7.525,0.0525 10.8862,0.0525 2.3638,0 0.8325,3.57625 -1.53,3.57625"
         inkscape:connector-curvature="0" />
      <path
         id="path3176"
         style="fill:#231f20;fill-opacity:1;fill-rule:nonzero;stroke:none"
         d="m 419.07587,543.88668 -8.0375,0 c -7.3162,0 -11.03,-6.11 -7.81,-13.645 3.3038,-7.75375 12.3688,-14.3025 19.7438,-14.3025 l 7.8662,0 c 2.4188,0 0.8963,3.57875 -1.5262,3.57875 l -7.8638,0 c -5.1237,0 -12.1012,4.895 -14.5912,10.72375 -2.2975,5.39 0.4587,10.0125 5.7437,10.0125 l 8.0213,0 c 2.4287,0 0.8775,3.6325 -1.5463,3.6325 m 12.775,-29.92625 -9.5737,0 c -6.2113,0 -16.5675,5.0625 -21.3138,16.17375 -3.7962,8.3625 1.5988,16.225 7.5563,16.06625 l 9.4575,0 c 2.4287,0 0.8725,3.6275 -1.545,3.6275 l -9.4663,0 c -8.315,-0.21875 -14.0475,-8.97 -9.6337,-19.69375 5.63,-13.2025 18.5187,-19.80375 26.495,-19.80375 l 9.5725,0 c 2.4212,0 0.8725,3.63 -1.5488,3.63"
         inkscape:connector-curvature="0" />
      <path
         id="path3180"
         style="fill:#231f20;fill-opacity:1;fill-rule:nonzero;stroke:none"
         d="m 457.24007,530.96193 c 0,0 -4.1788,9.7875 -6.9238,16.22625 -1.3912,3.24375 -5.1512,3.29625 -3.7,-0.1125 1.5363,-3.5725 5.3838,-12.5925 5.3838,-12.5925 l -13.4325,0 c 0,0 -4.1013,9.62375 -5.4188,12.705 -1.365,3.1875 -5.0175,3.24375 -3.6387,0 1.875,-4.40375 6.9337,-16.22625 6.9337,-16.22625 l 20.7963,0 z m -19.8588,-2.205 c 0,0 4.1163,-9.6275 6.8313,-16.00625 1.4062,-3.305 5.0637,-3.35625 3.5862,0.11 -1.5012,3.52125 -5.285,12.375 -5.285,12.375 l 13.4313,0 c 0,0 3.9825,-9.35 5.2775,-12.375 1.3937,-3.24875 5.1025,-3.305 3.6912,0 -1.86,4.3425 -6.7837,15.89625 -6.7837,15.89625 l -20.7488,0 z m 14.6488,19.31125 15.3325,-35.92875 c 1,-2.36125 4.6375,-2.36125 3.6212,0 l -15.3262,35.92875 c -1.0325,2.41625 -4.66,2.41625 -3.6275,0 m -28.94,0 15.3312,-35.92875 c 1.0113,-2.36125 4.6438,-2.36125 3.6338,0 l -15.3375,35.92875 c -1.0225,2.41625 -4.655,2.41625 -3.6275,0"
         inkscape:connector-curvature="0" />
      <path
         id="path3188"
         style="fill:#231f20;fill-opacity:1;fill-rule:nonzero;stroke:none"
         d="m 288.93927,518.90506 c 0,0 2.3788,0.007 4.9713,0.007 2.5862,0 3.78,2.0875 2.735,4.67125 -1.0425,2.58625 -4.5388,4.95125 -6.565,4.95125 -1.9875,0 -5.255,0.01 -5.255,0.01 l 4.1137,-9.64 z m 10.895,4.67875 c 1.7775,-4.285 -0.3437,-7.6975 -4.6312,-7.6975 -4.2938,0 -8.1488,0.0562 -8.1488,0.0562 -1.405,3.3025 -6.6762,15.73125 -6.6762,15.73125 l 7.9187,0 c 4.2363,0 9.6913,-3.62875 11.5375,-8.09 m -10.6262,10.3475 -9.7963,0 c 0,0 -4.2037,9.8425 -5.9662,13.97125 -1.1038,2.5825 2.345,2.36625 3.4012,-0.11375 1.7388,-4.06625 4.465,-10.44875 4.465,-10.44875 l 6.0538,0 c 2.0925,0 2.4087,1.70875 1.7487,3.2425 -1.6687,3.9125 -2.0637,4.845 -3.0612,7.15375 -1.075,2.5325 2.295,2.64 3.4187,0 1.6913,-3.9625 1.6225,-3.79375 3.1275,-7.31625 1.1238,-2.6425 0.1788,-6.48875 -3.3912,-6.48875 m 8.2725,-23.6575 -13.5663,-0.0425 c 0,10e-4 0,0.008 0,0.0125 l -28.4737,0 c -2.425,0 -3.9713,3.6275 -1.5488,3.6275 l 31.3238,0 10.6725,-0.0962 c 6.8687,-0.005 7.99,5.63 6.2325,9.7525 -2.5138,5.8925 -8.515,8.86 -8.515,8.86 0,0 3.2075,2.80375 1.6275,6.4925 -1.8475,4.34375 -2.1763,5.12 -3.7325,8.75125 -1.1463,2.6925 2.185,2.745 3.3587,0 1.8113,-4.23875 2.1888,-5.125 3.9013,-9.13375 1.4287,-3.36125 -0.7313,-6.1675 -0.7313,-6.1675 0,0 4.66,-2.91 7.12,-8.6875 3.1513,-7.3725 -0.2912,-13.36875 -7.6637,-13.36875 m -44.1888,5.63375 c -2.4712,0 -4.0712,3.36125 -1.4887,3.36125 l 9.5662,0 c 0,0 -8.19,19.1825 -12.325,28.86875 -1.0287,2.42 2.0875,2.4775 3.1138,0.0562 4.515,-10.565 13.7812,-32.28625 13.7812,-32.28625 l -12.6475,0 z m 31.49,-0.0862 c -0.082,-0.009 -3.4137,-0.0213 -3.505,-0.0213 l -12.6512,0 c 0,0 -9.27,21.72 -13.7813,32.28 -1.035,2.42125 2.1238,2.36625 3.1638,-0.055 4.1325,-9.685 12.3187,-28.86875 12.3187,-28.86875 l 9.5688,0 c 0.074,0 0.1462,-0.0112 0.22,-0.0187 -4.3763,10.255 -9.8525,23.08875 -12.2125,28.59875 -1.0775,2.5325 2.18,2.64 3.2587,0.11125 4.0538,-9.49375 11.535,-27.13375 13.6263,-31.995 l -0.01,-0.0312 z"
         inkscape:connector-curvature="0" />
      <path
         id="path3192"
         style="fill:#231f20;fill-opacity:1;fill-rule:nonzero;stroke:none"
         d="m 352.34987,559.68506 c 0.066,-0.1525 0.145,-0.30625 0.2575,-0.45625 0.6938,-0.945 1.5575,-1.35375 2.8638,-1.35375 l 5.0887,0 -0.8137,1.9775 -4.0538,0 -0.16,0 -0.2025,0.0125 c -0.2525,0.0238 -0.4462,0.0987 -0.605,0.255 -0.055,0.0638 -0.099,0.1275 -0.1275,0.19 l -0.25,0.61625 c -0.017,0.035 -0.04,0.0875 -0.04,0.12625 -0.043,0.26625 0.065,0.355 0.4675,0.395 0.045,0.0138 0.1088,0.0138 0.1563,0.0138 l 1.8087,0 c 1.275,0 1.8575,0.47 1.7038,1.43 -0.02,0.125 -0.055,0.25 -0.1088,0.38 l -0.7612,1.85375 c -0.4488,1.08125 -1.475,1.7725 -2.875,1.91 -0.1488,0.015 -0.2813,0.025 -0.4263,0.025 l -4.9437,0 0.8137,-1.97875 4.0538,0 0.2262,0 0.084,0 c 0.05,-0.009 0.105,-0.0225 0.1575,-0.0338 0.3675,-0.10625 0.5313,-0.23 0.6438,-0.50125 l 0.27,-0.6625 c 0.1075,-0.2575 0.01,-0.4075 -0.3463,-0.44375 l -0.29,0 -1.7962,0 c -0.8213,0 -1.3675,-0.28125 -1.6125,-0.82 -0.1225,-0.29375 -0.125,-0.63625 0.014,-0.98 l 0.8037,-1.955 z"
         inkscape:connector-curvature="0" />
      <path
         id="path3196"
         style="fill:#231f20;fill-opacity:1;fill-rule:nonzero;stroke:none"
         d="m 363.81357,561.93119 c -0.4588,0.485 -0.4913,0.6775 -0.27,1.43875 l 1.0775,3.69125 2.875,0 -1.3175,-4.67 5.0087,-4.51625 -2.8562,0 -4.0588,3.65125 -0.4587,0.405 z m -4.8288,5.13 3.7875,-9.18625 2.5,0 -3.7825,9.18625 -2.505,0 z"
         inkscape:connector-curvature="0" />
      <path
         id="path3200"
         style="fill:#231f20;fill-opacity:1;fill-rule:nonzero;stroke:none"
         d="m 369.00027,567.06056 3.7838,-9.18625 2.5062,0 -3.7875,9.18625 -2.5025,0 z"
         inkscape:connector-curvature="0" />
      <path
         id="path3204"
         style="fill:#231f20;fill-opacity:1;fill-rule:nonzero;stroke:none"
         d="m 374.75337,564.81806 2.8625,-6.94375 2.5038,0 -2.6325,6.3825 -0.1588,0.38 -0.01,0.0275 c -0.09,0.25375 0.071,0.4075 0.4575,0.4175 l 0.4475,0 3.9738,0 -0.8325,1.97875 -4.6325,0 c -0.1288,0 -0.2725,0 -0.4138,-0.0113 -1.7112,-0.11375 -2.1687,-0.76625 -1.5662,-2.23125"
         inkscape:connector-curvature="0" />
      <path
         id="path3208"
         style="fill:#231f20;fill-opacity:1;fill-rule:nonzero;stroke:none"
         d="m 384.16877,564.81806 2.8613,-6.94375 2.505,0 -2.6313,6.3825 -0.1562,0.38 -0.013,0.0275 c -0.09,0.25375 0.071,0.4075 0.4562,0.4175 l 0.4538,0 3.9687,0 -0.8262,1.97875 -4.6388,0 c -0.1275,0 -0.2737,0 -0.4125,-0.0113 -1.7112,-0.11375 -2.1725,-0.76625 -1.5675,-2.23125"
         inkscape:connector-curvature="0" />
      <path
         id="path3212"
         style="fill:#231f20;fill-opacity:1;fill-rule:nonzero;stroke:none"
         d="m 394.53737,559.68506 c 0.064,-0.1525 0.1413,-0.30625 0.2538,-0.45625 0.6962,-0.945 1.56,-1.35375 2.8662,-1.35375 l 5.0863,0 -0.8138,1.9775 -4.0525,0 -0.1637,0 -0.1975,0.0125 c -0.25,0.0238 -0.445,0.0987 -0.6063,0.255 -0.057,0.0638 -0.1,0.1275 -0.1237,0.19 l -0.2563,0.61625 c -0.015,0.035 -0.035,0.0875 -0.035,0.12625 -0.049,0.26625 0.059,0.355 0.4663,0.395 0.045,0.0138 0.105,0.0138 0.1562,0.0138 l 1.81,0 c 1.2713,0 1.8575,0.47 1.7,1.43 -0.019,0.125 -0.055,0.25 -0.1087,0.38 l -0.7613,1.85375 c -0.4462,1.08125 -1.4725,1.7725 -2.87,1.91 -0.1537,0.015 -0.2862,0.025 -0.4312,0.025 l -4.9438,0 0.8125,-1.97875 4.0563,0 0.2287,0 0.079,0 c 0.054,-0.009 0.1075,-0.0225 0.1613,-0.0338 0.3637,-0.10625 0.5325,-0.23 0.64,-0.50125 l 0.275,-0.6625 c 0.1025,-0.2575 0.01,-0.4075 -0.3463,-0.44375 l -0.295,0 -1.7925,0 c -0.82,0 -1.3687,-0.28125 -1.6162,-0.82 -0.1225,-0.29375 -0.1225,-0.63625 0.015,-0.98 l 0.8075,-1.955 z"
         inkscape:connector-curvature="0" />
      <path
         id="path3216"
         style="fill:#231f20;fill-opacity:1;fill-rule:nonzero;stroke:none"
         d="m 407.50367,565.02318 2.0837,-5.06 c 0.6575,-1.5925 1.525,-2.08875 3.5925,-2.08875 l 4.875,0 -0.815,1.9775 -4.1675,0 -0.2262,0 -0.1263,0 c -0.3325,0.0237 -0.5875,0.16375 -0.7512,0.4075 l -0.097,0.23 -1.5575,3.79125 c -0.2525,0.6125 -0.175,0.7675 0.4112,0.80125 l 0.2075,0 4.15,0 -0.8125,1.97875 -5.2512,0 c -0.2575,0 -0.5338,-0.0362 -0.8138,-0.13625 -0.8575,-0.30875 -1.1087,-0.9225 -0.7012,-1.90125"
         inkscape:connector-curvature="0" />
      <path
         id="path3220"
         style="fill:#231f20;fill-opacity:1;fill-rule:nonzero;stroke:none"
         d="m 417.14117,565.15006 2.1787,-5.28625 c 0.056,-0.14125 0.1325,-0.28 0.215,-0.40625 0.6425,-1.05 1.6713,-1.5825 3.03,-1.5825 l 5.1638,0 -0.8138,1.9775 -4.0925,0 -0.3662,0 -0.05,0 c -0.066,0.0113 -0.1188,0.0113 -0.1763,0.0362 -0.29,0.075 -0.5312,0.27 -0.6462,0.55 l -0.415,1.0225 5.0825,0 -0.8175,1.97875 -5.0888,0 -0.4175,1.02 c -0.1787,0.43375 -0.064,0.5875 0.3888,0.62125 l 0.3712,0 4.0675,0 -0.8137,1.97875 -4.81,0 c -1.8763,0 -2.4938,-0.68625 -1.99,-1.91"
         inkscape:connector-curvature="0" />
      <path
         id="path3224"
         style="fill:#231f20;fill-opacity:1;fill-rule:nonzero;stroke:none"
         d="m 426.15367,567.06056 3.0362,-7.3625 c 0.5863,-1.43 2.2713,-2.25625 3.6375,-1.81375 0.5825,0.1925 0.885,0.63875 0.8163,1.39125 l -0.4325,5.32125 2.7712,-6.7225 2.3725,0 -3.1325,7.60375 c -0.3975,0.95875 -1.5787,1.6725 -2.7425,1.71 -1.0887,0.015 -1.645,-0.47 -1.5675,-1.5575 l 0.3925,-5.2675 -2.7587,6.6975 -2.3925,0 z"
         inkscape:connector-curvature="0" />
      <path
         id="path3228"
         style="fill:#231f20;fill-opacity:1;fill-rule:nonzero;stroke:none"
         d="m 439.28587,559.85231 0.815,-1.9775 7.4913,0 -0.8138,1.9775 -2.5025,0 -2.9737,7.20875 -2.5025,0 2.9737,-7.20875 -2.4875,0 z"
         inkscape:connector-curvature="0" />
      <path
         id="path3232"
         style="fill:#231f20;fill-opacity:1;fill-rule:nonzero;stroke:none"
         d="m 446.33917,565.15006 2.1775,-5.28625 c 0.056,-0.14125 0.1325,-0.28 0.22,-0.40625 0.6375,-1.05 1.6687,-1.5825 3.0225,-1.5825 l 5.1662,0 -0.8137,1.9775 -4.0863,0 -0.3737,0 -0.045,0 c -0.07,0.0113 -0.1188,0.0113 -0.18,0.0362 -0.285,0.075 -0.53,0.27 -0.6425,0.55 l -0.4238,1.0225 5.0913,0 -0.8213,1.97875 -5.0825,0 -0.4187,1.02 c -0.185,0.43375 -0.065,0.5875 0.3875,0.62125 l 0.3675,0 4.075,0 -0.82,1.97875 -4.8113,0 c -1.8762,0 -2.4937,-0.68625 -1.9887,-1.91"
         inkscape:connector-curvature="0" />
      <path
         id="path3236"
         style="fill:#231f20;fill-opacity:1;fill-rule:nonzero;stroke:none"
         d="m 459.14187,557.87469 5.845,0 c 1.3888,0 1.97,0.50875 1.7525,1.50375 -0.019,0.1275 -0.062,0.2425 -0.115,0.35875 l -0.7537,1.83625 c -0.051,0.12875 -0.1075,0.255 -0.1913,0.385 -0.555,0.8275 -1.445,1.33875 -2.4775,1.455 -0.1475,0.0125 -0.3,0.0263 -0.4437,0.0263 l -0.3825,-0.0138 1.3437,3.635 -2.9512,0 -1.2288,-3.42 c -0.07,-0.1775 -0.05,-0.425 0.1025,-0.71375 0.3938,-0.765 1.1263,-1.1625 1.9775,-1.1625 l 1.0163,0 c 0.4762,0 0.7325,-0.15125 0.8837,-0.52375 l 0.3463,-0.84375 c 0.13,-0.31375 0.022,-0.48125 -0.39,-0.5325 -0.049,-0.0125 -0.115,-0.0125 -0.1613,-0.0125 l -2.4875,0 -2.9675,7.20875 -2.5025,0 3.785,-9.18625 z"
         inkscape:connector-curvature="0" />
    </g>
  </g>
</svg>
